<mxfile host="65bd71144e">
    <diagram id="yXy8JVhOGnNSU9Jqa5TX" name="ページ1">
        <mxGraphModel dx="581" dy="690" grid="1" gridSize="10" guides="1" tooltips="1" connect="1" arrows="1" fold="1" page="1" pageScale="1" pageWidth="827" pageHeight="1169" math="0" shadow="0">
            <root>
                <mxCell id="0"/>
                <mxCell id="1" parent="0"/>
                <mxCell id="2" value="" style="endArrow=classic;html=1;" parent="1" edge="1">
                    <mxGeometry width="50" height="50" relative="1" as="geometry">
                        <mxPoint x="280" y="80" as="sourcePoint"/>
                        <mxPoint x="120" y="240" as="targetPoint"/>
                    </mxGeometry>
                </mxCell>
                <mxCell id="3" value="" style="endArrow=classic;html=1;" parent="1" edge="1">
                    <mxGeometry width="50" height="50" relative="1" as="geometry">
                        <mxPoint x="320" y="160" as="sourcePoint"/>
                        <mxPoint x="80" y="160" as="targetPoint"/>
                    </mxGeometry>
                </mxCell>
                <mxCell id="4" value="" style="endArrow=classic;html=1;" parent="1" edge="1">
                    <mxGeometry width="50" height="50" relative="1" as="geometry">
                        <mxPoint x="200" y="40" as="sourcePoint"/>
                        <mxPoint x="200" y="280" as="targetPoint"/>
                    </mxGeometry>
                </mxCell>
                <mxCell id="5" value="x" style="text;html=1;strokeColor=none;fillColor=none;align=center;verticalAlign=middle;whiteSpace=wrap;rounded=0;" parent="1" vertex="1">
                    <mxGeometry x="40" y="140" width="40" height="40" as="geometry"/>
                </mxCell>
                <mxCell id="6" value="y" style="text;html=1;strokeColor=none;fillColor=none;align=center;verticalAlign=middle;whiteSpace=wrap;rounded=0;" parent="1" vertex="1">
                    <mxGeometry x="80" y="240" width="40" height="40" as="geometry"/>
                </mxCell>
                <mxCell id="7" value="z&lt;br&gt;" style="text;html=1;strokeColor=none;fillColor=none;align=center;verticalAlign=middle;whiteSpace=wrap;rounded=0;" parent="1" vertex="1">
                    <mxGeometry x="180" y="280" width="40" height="40" as="geometry"/>
                </mxCell>
                <mxCell id="9" value="" style="endArrow=classic;html=1;" parent="1" edge="1">
                    <mxGeometry width="50" height="50" relative="1" as="geometry">
                        <mxPoint x="200" y="400" as="sourcePoint"/>
                        <mxPoint x="40" y="400" as="targetPoint"/>
                    </mxGeometry>
                </mxCell>
                <mxCell id="10" value="" style="endArrow=classic;html=1;" parent="1" edge="1">
                    <mxGeometry width="50" height="50" relative="1" as="geometry">
                        <mxPoint x="120" y="320" as="sourcePoint"/>
                        <mxPoint x="120" y="480" as="targetPoint"/>
                    </mxGeometry>
                </mxCell>
                <mxCell id="11" value="" style="endArrow=classic;html=1;" parent="1" edge="1">
                    <mxGeometry width="50" height="50" relative="1" as="geometry">
                        <mxPoint x="439.9999999999999" y="400" as="sourcePoint"/>
                        <mxPoint x="280" y="400" as="targetPoint"/>
                    </mxGeometry>
                </mxCell>
                <mxCell id="12" value="" style="endArrow=classic;html=1;" parent="1" edge="1">
                    <mxGeometry width="50" height="50" relative="1" as="geometry">
                        <mxPoint x="360" y="320" as="sourcePoint"/>
                        <mxPoint x="360" y="480" as="targetPoint"/>
                    </mxGeometry>
                </mxCell>
                <mxCell id="13" value="" style="endArrow=classic;html=1;" parent="1" edge="1">
                    <mxGeometry width="50" height="50" relative="1" as="geometry">
                        <mxPoint x="680" y="400" as="sourcePoint"/>
                        <mxPoint x="520" y="400" as="targetPoint"/>
                    </mxGeometry>
                </mxCell>
                <mxCell id="14" value="" style="endArrow=classic;html=1;" parent="1" edge="1">
                    <mxGeometry width="50" height="50" relative="1" as="geometry">
                        <mxPoint x="600" y="320" as="sourcePoint"/>
                        <mxPoint x="600" y="480.0000000000002" as="targetPoint"/>
                    </mxGeometry>
                </mxCell>
                <mxCell id="15" value="" style="endArrow=classic;html=1;" parent="1" edge="1">
                    <mxGeometry width="50" height="50" relative="1" as="geometry">
                        <mxPoint x="600" y="160.0000000000001" as="sourcePoint"/>
                        <mxPoint x="440" y="160.0000000000001" as="targetPoint"/>
                    </mxGeometry>
                </mxCell>
                <mxCell id="16" value="" style="endArrow=classic;html=1;" parent="1" edge="1">
                    <mxGeometry width="50" height="50" relative="1" as="geometry">
                        <mxPoint x="520" y="80" as="sourcePoint"/>
                        <mxPoint x="520" y="240.00000000000023" as="targetPoint"/>
                    </mxGeometry>
                </mxCell>
                <mxCell id="17" value="x" style="text;html=1;strokeColor=none;fillColor=none;align=center;verticalAlign=middle;whiteSpace=wrap;rounded=0;" parent="1" vertex="1">
                    <mxGeometry x="400" y="140" width="40" height="40" as="geometry"/>
                </mxCell>
                <mxCell id="19" value="y" style="text;html=1;strokeColor=none;fillColor=none;align=center;verticalAlign=middle;whiteSpace=wrap;rounded=0;" parent="1" vertex="1">
                    <mxGeometry x="500" y="240" width="40" height="40" as="geometry"/>
                </mxCell>
                <mxCell id="26" value="x" style="text;html=1;strokeColor=none;fillColor=none;align=center;verticalAlign=middle;whiteSpace=wrap;rounded=0;" parent="1" vertex="1">
                    <mxGeometry y="380" width="40" height="40" as="geometry"/>
                </mxCell>
                <mxCell id="27" value="y" style="text;html=1;strokeColor=none;fillColor=none;align=center;verticalAlign=middle;whiteSpace=wrap;rounded=0;" parent="1" vertex="1">
                    <mxGeometry x="100" y="480" width="40" height="40" as="geometry"/>
                </mxCell>
                <mxCell id="28" value="z" style="text;html=1;strokeColor=none;fillColor=none;align=center;verticalAlign=middle;whiteSpace=wrap;rounded=0;" parent="1" vertex="1">
                    <mxGeometry x="240" y="380" width="40" height="40" as="geometry"/>
                </mxCell>
                <mxCell id="29" value="y" style="text;html=1;strokeColor=none;fillColor=none;align=center;verticalAlign=middle;whiteSpace=wrap;rounded=0;" parent="1" vertex="1">
                    <mxGeometry x="340" y="480" width="40" height="40" as="geometry"/>
                </mxCell>
                <mxCell id="30" value="x" style="text;html=1;strokeColor=none;fillColor=none;align=center;verticalAlign=middle;whiteSpace=wrap;rounded=0;" parent="1" vertex="1">
                    <mxGeometry x="480" y="380" width="40" height="40" as="geometry"/>
                </mxCell>
                <mxCell id="31" value="z" style="text;html=1;strokeColor=none;fillColor=none;align=center;verticalAlign=middle;whiteSpace=wrap;rounded=0;" parent="1" vertex="1">
                    <mxGeometry x="580" y="480" width="40" height="40" as="geometry"/>
                </mxCell>
                <mxCell id="32" value="" style="curved=1;endArrow=classic;html=1;edgeStyle=orthogonalEdgeStyle;" parent="1" edge="1">
                    <mxGeometry width="50" height="50" relative="1" as="geometry">
                        <mxPoint x="140" y="400" as="sourcePoint"/>
                        <mxPoint x="140" y="400" as="targetPoint"/>
                        <Array as="points">
                            <mxPoint x="140" y="380"/>
                            <mxPoint x="100" y="380"/>
                            <mxPoint x="100" y="420"/>
                        </Array>
                    </mxGeometry>
                </mxCell>
                <mxCell id="33" value="" style="curved=1;endArrow=classic;html=1;edgeStyle=orthogonalEdgeStyle;" parent="1" edge="1">
                    <mxGeometry width="50" height="50" relative="1" as="geometry">
                        <mxPoint x="380" y="400" as="sourcePoint"/>
                        <mxPoint x="380" y="400" as="targetPoint"/>
                        <Array as="points">
                            <mxPoint x="380" y="380"/>
                            <mxPoint x="340" y="380"/>
                            <mxPoint x="340" y="420"/>
                        </Array>
                    </mxGeometry>
                </mxCell>
                <mxCell id="34" value="" style="curved=1;endArrow=classic;html=1;edgeStyle=orthogonalEdgeStyle;" parent="1" edge="1">
                    <mxGeometry width="50" height="50" relative="1" as="geometry">
                        <mxPoint x="620" y="400" as="sourcePoint"/>
                        <mxPoint x="620" y="400" as="targetPoint"/>
                        <Array as="points">
                            <mxPoint x="620" y="380"/>
                            <mxPoint x="580" y="380"/>
                            <mxPoint x="580" y="420"/>
                        </Array>
                    </mxGeometry>
                </mxCell>
                <mxCell id="35" value="yaw" style="text;html=1;strokeColor=none;fillColor=none;align=center;verticalAlign=middle;whiteSpace=wrap;rounded=0;" parent="1" vertex="1">
                    <mxGeometry x="140" y="360" width="60" height="30" as="geometry"/>
                </mxCell>
                <mxCell id="36" value="pitch" style="text;html=1;strokeColor=none;fillColor=none;align=center;verticalAlign=middle;whiteSpace=wrap;rounded=0;" parent="1" vertex="1">
                    <mxGeometry x="380" y="360" width="60" height="30" as="geometry"/>
                </mxCell>
                <mxCell id="37" value="row" style="text;html=1;strokeColor=none;fillColor=none;align=center;verticalAlign=middle;whiteSpace=wrap;rounded=0;" parent="1" vertex="1">
                    <mxGeometry x="620" y="360" width="60" height="30" as="geometry"/>
                </mxCell>
                <mxCell id="38" value="BNO 055" style="rounded=0;whiteSpace=wrap;html=1;" parent="1" vertex="1">
                    <mxGeometry x="480" y="140" width="80" height="40" as="geometry"/>
                </mxCell>
                <mxCell id="40" value="SDA" style="text;html=1;strokeColor=none;fillColor=none;align=center;verticalAlign=middle;whiteSpace=wrap;rounded=0;" parent="1" vertex="1">
                    <mxGeometry x="480" y="120" width="40" height="20" as="geometry"/>
                </mxCell>
                <mxCell id="41" value="Vout" style="text;html=1;strokeColor=none;fillColor=none;align=center;verticalAlign=middle;whiteSpace=wrap;rounded=0;" parent="1" vertex="1">
                    <mxGeometry x="520" y="180" width="40" height="20" as="geometry"/>
                </mxCell>
                <mxCell id="42" value="" style="endArrow=classic;html=1;" parent="1" edge="1">
                    <mxGeometry width="50" height="50" relative="1" as="geometry">
                        <mxPoint x="180" y="340" as="sourcePoint"/>
                        <mxPoint x="60" y="460" as="targetPoint"/>
                    </mxGeometry>
                </mxCell>
                <mxCell id="43" value="z" style="text;html=1;strokeColor=none;fillColor=none;align=center;verticalAlign=middle;whiteSpace=wrap;rounded=0;" parent="1" vertex="1">
                    <mxGeometry x="20" y="460" width="40" height="40" as="geometry"/>
                </mxCell>
                <mxCell id="44" value="" style="endArrow=classic;html=1;" parent="1" edge="1">
                    <mxGeometry width="50" height="50" relative="1" as="geometry">
                        <mxPoint x="420" y="340" as="sourcePoint"/>
                        <mxPoint x="300" y="460" as="targetPoint"/>
                    </mxGeometry>
                </mxCell>
                <mxCell id="45" value="x" style="text;html=1;strokeColor=none;fillColor=none;align=center;verticalAlign=middle;whiteSpace=wrap;rounded=0;" parent="1" vertex="1">
                    <mxGeometry x="260" y="460" width="40" height="40" as="geometry"/>
                </mxCell>
                <mxCell id="46" value="" style="endArrow=classic;html=1;" parent="1" edge="1">
                    <mxGeometry width="50" height="50" relative="1" as="geometry">
                        <mxPoint x="660" y="340" as="sourcePoint"/>
                        <mxPoint x="540" y="460" as="targetPoint"/>
                    </mxGeometry>
                </mxCell>
                <mxCell id="47" value="y" style="text;html=1;strokeColor=none;fillColor=none;align=center;verticalAlign=middle;whiteSpace=wrap;rounded=0;" parent="1" vertex="1">
                    <mxGeometry x="500" y="460" width="40" height="40" as="geometry"/>
                </mxCell>
            </root>
        </mxGraphModel>
    </diagram>
</mxfile>